<svg width="512" height="512" viewBox="0 0 512 512" fill="none" xmlns="http://www.w3.org/2000/svg">
  <defs>
    <linearGradient id="bg" x1="20" y1="16" x2="492" y2="496" gradientUnits="userSpaceOnUse">
      <stop stop-color="#F3FAF6"/>
      <stop offset="1" stop-color="#DCEFE6"/>
    </linearGradient>
    <linearGradient id="pin" x1="200" y1="139" x2="315" y2="368" gradientUnits="userSpaceOnUse">
      <stop stop-color="#278568"/>
      <stop offset="1" stop-color="#155A46"/>
    </linearGradient>
  </defs>
  <rect width="512" height="512" fill="url(#bg)"/>
  <path d="M256 126C196.91 126 149 173.91 149 233C149 307.29 234.27 382.85 248.65 395.13C252.87 398.73 259.13 398.73 263.35 395.13C277.73 382.85 363 307.29 363 233C363 173.91 315.09 126 256 126Z" fill="url(#pin)"/>
  <circle cx="256" cy="232" r="61" fill="#FFFDF7"/>
  <path d="M220 271V194H240.3L273.2 238.4V194H292V271H272.4L238.8 226.2V271H220Z" fill="#185D49"/>
  <circle cx="322" cy="160" r="13" fill="#E9984B"/>
</svg>
