<svg width="512" height="512" viewBox="0 0 512 512" fill="none" xmlns="http://www.w3.org/2000/svg">
  <defs>
    <linearGradient id="bg" x1="54" y1="48" x2="462" y2="470" gradientUnits="userSpaceOnUse">
      <stop stop-color="#F3FAF6"/>
      <stop offset="1" stop-color="#DCEFE6"/>
    </linearGradient>
    <linearGradient id="pin" x1="188" y1="126" x2="329" y2="383" gradientUnits="userSpaceOnUse">
      <stop stop-color="#278568"/>
      <stop offset="1" stop-color="#155A46"/>
    </linearGradient>
  </defs>
  <rect x="24" y="24" width="464" height="464" rx="112" fill="url(#bg)"/>
  <rect x="25.5" y="25.5" width="461" height="461" rx="110.5" stroke="#FFFFFF" stroke-opacity="0.9" stroke-width="3"/>
  <ellipse cx="256" cy="402" rx="78" ry="18" fill="#155A46" fill-opacity="0.14"/>
  <path d="M256 105C188.62 105 134 159.62 134 227C134 311.7 231.22 397.85 247.61 411.84C252.41 415.93 259.59 415.93 264.39 411.84C280.78 397.85 378 311.7 378 227C378 159.62 323.38 105 256 105Z" fill="url(#pin)"/>
  <circle cx="256" cy="226" r="70" fill="#FFFDF7"/>
  <path d="M215 270V181H238.4L276.4 232.3V181H298V270H275.4L236.6 218.2V270H215Z" fill="#185D49"/>
  <circle cx="331" cy="144" r="15" fill="#E9984B"/>
  <circle cx="331" cy="144" r="7" fill="#FFE7C9"/>
</svg>
